<?xml version="1.0" ?><svg id="Layer_1" style="enable-background:new 0 0 48 48;" version="1.1" viewBox="0 0 48 48" xml:space="preserve" xmlns="http://www.w3.org/2000/svg" xmlns:xlink="http://www.w3.org/1999/xlink"><style type="text/css">
	.st0{fill:#F9B17B;}
	.st1{fill:#F9AE7B;}
	.st2{opacity:0.5;}
	.st3{fill:#F69164;}
	.st4{fill:#603813;}
	.st5{fill:#3B2314;}
	.st6{fill:#FFFFFF;}
	.st7{fill:#009345;}
	.st8{fill:#F8B677;}
	.st9{fill:#8A5D3B;}
	.st10{fill:#A87C4F;}
	.st11{fill:#321B0F;}
	.st12{fill:#404041;}
	.st13{fill:#929497;}
	.st14{fill:#754C28;}
	.st15{fill:#009687;}
	.st16{fill:#C3996B;}
	.st17{fill:#FAAF40;}
	.st18{fill:#E89E3C;}
	.st19{fill:#D0D2D3;}
	.st20{fill:#58595B;}
	.st21{fill:#EAA476;}
	.st22{fill:#E29C75;}
	.st23{fill:#D5855B;}
	.st24{fill:#F05A28;}
	.st25{fill:#F6921E;}
	.st26{fill:#783340;}
	.st27{fill:#843A42;}
	.st28{fill:#6D6E70;}
	.st29{fill:#EE4036;}
	.st30{fill:#FDED16;}
	.st31{fill:#231F20;}
	.st32{fill:#885A3D;}
	.st33{fill:#5C3418;}
	.st34{fill:#C49291;}
	.st35{fill:#262261;}
	.st36{fill:#E6E7E8;}
</style><g><g><g><path class="st14" d="M35.5,38.16c-2.24-0.96-5.95-2.23-10.7-2.4c-4.69-0.17-8.44,0.79-10.74,1.58     c-0.74,0.22-2.21,0.78-3.58,2.14C9.96,40,8.93,41.17,8.36,42.99c-0.25,0.81-0.39,1.66-0.39,2.55v0h32.05v0     c-0.01-0.83-0.17-3.89-2.51-6.06C36.83,38.84,36.12,38.43,35.5,38.16z"/></g></g><g><g><g><path class="st0" d="M35.64,23.25H12.26c-1.29,0-2.34-1.05-2.34-2.34v-0.55c0-1.29,1.05-2.34,2.34-2.34h23.38      c1.29,0,2.34,1.05,2.34,2.34v0.55C37.98,22.21,36.93,23.25,35.64,23.25z"/></g></g><g><g><rect class="st1" height="5.39" width="5.94" x="21.09" y="30.72"/></g></g><g class="st2"><g><path class="st3" d="M24.62,26.16c-0.1-0.03-0.2-0.06-0.3-0.08c-0.65-0.02-1.3,0-1.95,0.05c-0.43,0.08-0.86,0.17-1.28,0.26v6.58      c0.88,0.26,1.6,0.36,2,0.41c0.38,0.05,0.81,0.08,1.3,0.06c0.42-0.01,0.81-0.05,1.14-0.11c0.3-0.04,0.85-0.13,1.53-0.34      c0-0.04,0-0.08,0-0.12v-6.34C26.22,26.51,25.4,26.39,24.62,26.16z"/></g></g><g><g><path class="st0" d="M25.49,31.87c-0.34,0.05-0.74,0.1-1.17,0.11c-0.5,0.01-0.94-0.02-1.33-0.06c-1.04-0.11-4.22-0.59-6.72-3.17      c-0.48-0.49-1.74-1.82-2.41-3.98c-0.28-0.91-0.44-1.88-0.44-2.89v-7.47c0-5.36,4.35-9.71,9.71-9.71h1.62      c5.36,0,9.71,4.35,9.71,9.71v7.47c-0.02,0.8-0.21,4.09-2.84,6.87C29.24,31.26,26.35,31.76,25.49,31.87z"/></g></g></g><g><g><path class="st9" d="M24.58,25.09c-0.02,0-0.03,0-0.05,0c-1.69-0.35-2.46-0.74-2.48-1.26c-0.02-0.35,0.29-0.55,0.62-0.77     c0.29-0.19,0.64-0.42,0.9-0.8c0.4-0.62,0.45-1.48,0.14-2.58c-0.04-0.13,0.04-0.26,0.16-0.29c0.13-0.04,0.26,0.04,0.29,0.16     c0.35,1.23,0.28,2.23-0.2,2.97c-0.31,0.46-0.72,0.74-1.03,0.94c-0.18,0.12-0.41,0.27-0.4,0.35c0,0.02,0.04,0.4,2.11,0.82     c0.13,0.03,0.21,0.15,0.18,0.28C24.79,25.02,24.69,25.09,24.58,25.09z"/></g></g><g><g><ellipse class="st11" cx="29.69" cy="20.7" rx="1.08" ry="1.69"/></g></g><g><g><ellipse class="st11" cx="18.82" cy="20.7" rx="1.08" ry="1.69"/></g></g><g><g><path class="st9" d="M24.06,27.97c-0.73,0-1.46-0.24-2.08-0.72c-0.1-0.08-0.12-0.23-0.04-0.33c0.08-0.1,0.23-0.12,0.33-0.04     c0.86,0.66,2,0.81,2.91,0.36c0.96-0.47,1.31-1.4,1.39-1.68c0.04-0.12,0.17-0.2,0.29-0.16c0.12,0.04,0.2,0.17,0.16,0.29     c-0.1,0.32-0.5,1.41-1.64,1.96C24.98,27.87,24.53,27.97,24.06,27.97z"/></g></g><g><g><path class="st4" d="M31.13,16.26c-0.11,0-0.21-0.04-0.3-0.11c-0.89-0.74-2.18-0.74-3.07,0c-0.2,0.17-0.5,0.14-0.67-0.06     c-0.17-0.2-0.14-0.5,0.06-0.67c1.24-1.03,3.04-1.03,4.28,0c0.2,0.17,0.23,0.46,0.06,0.67C31.4,16.21,31.27,16.26,31.13,16.26z"/></g></g><g><g><path class="st4" d="M16.24,16.26c-0.14,0-0.27-0.06-0.36-0.17c-0.17-0.2-0.14-0.5,0.06-0.67c1.24-1.03,3.04-1.03,4.28,0     c0.2,0.17,0.23,0.46,0.06,0.67c-0.17,0.2-0.46,0.23-0.67,0.06c-0.89-0.74-2.18-0.74-3.07,0C16.45,16.23,16.34,16.26,16.24,16.26z     "/></g></g><g><g><path class="st15" d="M35.4,14.4c-0.02-0.75-0.08-2.39-0.55-3.83c-1.78-5.45-9.16-7.25-10.2-7.49c-1.71-0.4-6.77-1.56-8.62,1     c-0.73,1.01-0.73,2.28-0.61,3.2C12.28,6.7,9.74,8.86,9.66,11c-0.06,1.55,1.17,3.17,3.03,3.9c0,0.92-0.02,1.69-0.05,2.37     c-0.03,0.69-0.08,1.7,0.57,2.39c0.08,0.08,0.15,0.14,0.19,0.18c0.1,0.08,0.39,0.28,0.8,0.28c0.4-0.01,0.86-0.23,1.02-0.58     c0.26-0.56-0.39-1.06-0.63-2.08c-0.12-0.49-0.17-1.26,0.23-2.32c1.07,0.26,3.5,0.7,6.27-0.28c1.54-0.55,2.67-1.35,3.38-1.96     c0.67,1.29,1.79,2.14,3.06,2.14c1.84,0,3.36-1.78,3.67-4.12c0.88,0.55,1.15,1.09,1.24,1.5c0.12,0.57-0.14,0.85-0.09,1.57     c0.06,0.82,0.45,1.31,0.67,1.74c0.37,0.73,0.58,1.92-0.19,4c0.06,0.06,0.39,0.43,0.94,0.45c0.55,0.03,0.91-0.3,0.97-0.36     C35.09,18.57,35.47,16.69,35.4,14.4z"/></g></g><g><g><path class="st16" d="M27.44,40.42c0.62-1.35,1.24-2.69,1.86-4.04l-2.25-2.56l-2.2,1.66h-1.65l-2.09-1.58l-2.25,2.56     c0.62,1.35,1.24,2.69,1.86,4.04c1.09-1.19,2.19-2.37,3.28-3.56h0.23C25.31,38.1,26.38,39.26,27.44,40.42z"/></g></g></g></svg>